<?xml version="1.0" encoding="UTF-8"?>
<!DOCTYPE svg PUBLIC "-//W3C//DTD SVG 1.1//EN" "http://www.w3.org/Graphics/SVG/1.1/DTD/svg11.dtd">
<svg xmlns="http://www.w3.org/2000/svg" version="1.1" width="512px" height="512px" style="shape-rendering:geometricPrecision; text-rendering:geometricPrecision; image-rendering:optimizeQuality; fill-rule:evenodd; clip-rule:evenodd" xmlns:xlink="http://www.w3.org/1999/xlink">
<g><path style="opacity:0.928" fill="#000000" d="M 198.5,47.5 C 222.554,45.3946 241.554,54.0612 255.5,73.5C 273.027,49.4915 296.027,41.9915 324.5,51C 353.219,65.6069 364.386,88.7736 358,120.5C 355.915,128.67 352.248,136.004 347,142.5C 322.5,167.667 298,192.833 273.5,218C 265.6,223.212 256.933,224.879 247.5,223C 243.888,221.861 240.554,220.194 237.5,218C 213,192.833 188.5,167.667 164,142.5C 151.96,126.66 148.293,108.993 153,89.5C 160.076,66.5859 175.243,52.5859 198.5,47.5 Z M 204.5,63.5 C 223.1,64.0419 236.266,72.7086 244,89.5C 245.768,96.0755 247.101,102.742 248,109.5C 253,114.833 258,114.833 263,109.5C 263.489,86.9925 274.323,72.1591 295.5,65C 324.171,62.9972 340.171,76.3305 343.5,105C 342.851,113.947 340.018,122.114 335,129.5C 310.195,155.305 285.028,180.805 259.5,206C 256.036,206.817 252.702,206.483 249.5,205C 226.307,180.808 202.807,156.974 179,133.5C 164.686,115.623 164.019,97.2895 177,78.5C 184.464,70.1882 193.63,65.1882 204.5,63.5 Z"/></g>
<g><path style="opacity:0.966" fill="#000000" d="M 88.5,135.5 C 101.822,133.08 111.656,137.746 118,149.5C 119.465,170.1 119.965,190.766 119.5,211.5C 128.289,210.19 136.289,212.023 143.5,217C 160.395,233.227 176.562,250.06 192,267.5C 195.522,273.399 197.855,279.732 199,286.5C 199.5,305.497 199.667,324.497 199.5,343.5C 222.437,341.77 233.103,352.437 231.5,375.5C 235.637,375.482 238.137,377.482 239,381.5C 239.966,402.564 239.632,423.564 238,444.5C 237.097,445.701 235.931,446.535 234.5,447C 186.833,447.667 139.167,447.667 91.5,447C 90.5838,446.626 89.7504,446.126 89,445.5C 87.3556,423.589 87.0222,401.589 88,379.5C 89.5388,376.479 92.0388,375.146 95.5,375.5C 93.0062,352.328 103.34,341.661 126.5,343.5C 125.343,335.848 122.51,328.848 118,322.5C 105.97,310.804 94.3036,298.804 83,286.5C 78.2789,279.724 74.6122,272.391 72,264.5C 71.3333,227.167 71.3333,189.833 72,152.5C 75.0191,144.316 80.5191,138.649 88.5,135.5 Z M 92.5,152.5 C 98.3262,151.489 101.826,153.822 103,159.5C 103.776,184.843 103.609,210.176 102.5,235.5C 102.481,240.945 103.981,245.945 107,250.5C 119.5,263 132,275.5 144.5,288C 145.5,288.667 146.5,288.667 147.5,288C 150.667,284.833 153.833,281.667 157,278.5C 157.667,277.5 157.667,276.5 157,275.5C 145,263.5 133,251.5 121,239.5C 118.822,231.34 121.989,227.84 130.5,229C 145.333,243.833 160.167,258.667 175,273.5C 179.645,280.1 182.311,287.433 183,295.5C 183.5,311.497 183.667,327.497 183.5,343.5C 170.167,343.5 156.833,343.5 143.5,343.5C 143.051,331.93 139.217,321.597 132,312.5C 120.696,300.196 109.03,288.196 97,276.5C 92.6288,270.091 89.6288,263.091 88,255.5C 87.3333,223.5 87.3333,191.5 88,159.5C 88.5303,156.415 90.0303,154.082 92.5,152.5 Z M 118.5,359.5 C 148.169,359.333 177.835,359.5 207.5,360C 210.573,360.739 212.74,362.572 214,365.5C 214.498,368.817 214.665,372.15 214.5,375.5C 180.167,375.5 145.833,375.5 111.5,375.5C 111.344,371.418 111.844,367.418 113,363.5C 114.5,361.531 116.333,360.198 118.5,359.5 Z M 103.5,391.5 C 143.167,391.5 182.833,391.5 222.5,391.5C 222.5,404.833 222.5,418.167 222.5,431.5C 182.833,431.5 143.167,431.5 103.5,431.5C 103.5,418.167 103.5,404.833 103.5,391.5 Z"/></g>
<g><path style="opacity:0.967" fill="#000000" d="M 408.5,135.5 C 423.367,133.012 433.534,138.678 439,152.5C 439.667,189.5 439.667,226.5 439,263.5C 436.67,271.826 433.003,279.493 428,286.5C 416.696,298.804 405.03,310.804 393,322.5C 388.49,328.848 385.657,335.848 384.5,343.5C 407.66,341.661 417.994,352.328 415.5,375.5C 418.961,375.146 421.461,376.479 423,379.5C 423.978,401.589 423.644,423.589 422,445.5C 421.25,446.126 420.416,446.626 419.5,447C 371.833,447.667 324.167,447.667 276.5,447C 273.906,445.661 272.406,443.494 272,440.5C 271.333,421.167 271.333,401.833 272,382.5C 272.439,377.893 274.939,375.56 279.5,375.5C 277.324,362.028 281.991,351.861 293.5,345C 318.102,343.529 342.768,343.029 367.5,343.5C 367.943,331.941 371.776,321.608 379,312.5C 390.304,300.196 401.97,288.196 414,276.5C 418.371,270.091 421.371,263.091 423,255.5C 423.667,223.5 423.667,191.5 423,159.5C 420.841,152.408 416.507,150.742 410,154.5C 409.138,156.087 408.471,157.754 408,159.5C 407.667,186.833 407.333,214.167 407,241.5C 406.562,244.376 405.562,247.043 404,249.5C 391.863,262.638 379.363,275.471 366.5,288C 365.5,288.667 364.5,288.667 363.5,288C 360.333,284.833 357.167,281.667 354,278.5C 353.333,277.833 353.333,277.167 354,276.5C 366.363,264.471 378.363,252.138 390,239.5C 390.67,231.839 387.17,228.673 379.5,230C 363.971,245.195 348.804,260.695 334,276.5C 331.781,280.271 330.115,284.271 329,288.5C 327.696,298.789 327.196,309.122 327.5,319.5C 322.167,319.5 316.833,319.5 311.5,319.5C 311.333,308.495 311.5,297.495 312,286.5C 313.345,278.478 316.345,271.145 321,264.5C 335.804,248.695 350.971,233.195 366.5,218C 373.762,212.683 381.762,211.183 390.5,213.5C 391.333,193.175 391.833,172.842 392,152.5C 395.019,144.316 400.519,138.649 408.5,135.5 Z M 303.5,359.5 C 333.169,359.333 362.835,359.5 392.5,360C 394.848,360.346 396.681,361.513 398,363.5C 399.156,367.418 399.656,371.418 399.5,375.5C 365.167,375.5 330.833,375.5 296.5,375.5C 296.335,372.15 296.502,368.817 297,365.5C 298.113,362.219 300.28,360.219 303.5,359.5 Z M 288.5,391.5 C 328.167,391.5 367.833,391.5 407.5,391.5C 407.5,404.833 407.5,418.167 407.5,431.5C 367.833,431.5 328.167,431.5 288.5,431.5C 288.5,418.167 288.5,404.833 288.5,391.5 Z"/></g>
</svg>
