<?xml version="1.0" standalone="no"?>
<!DOCTYPE svg PUBLIC "-//W3C//DTD SVG 20010904//EN"
 "http://www.w3.org/TR/2001/REC-SVG-20010904/DTD/svg10.dtd">
<svg version="1.0" xmlns="http://www.w3.org/2000/svg"
 width="1280.000000pt" height="1280.000000pt" viewBox="0 0 1280.000000 1280.000000"
 preserveAspectRatio="xMidYMid meet">
<metadata>
Created by potrace 1.16, written by Peter Selinger 2001-2019
</metadata>
<g transform="translate(0.000000,1280.000000) scale(0.100000,-0.100000)"
fill="#a1bfba" stroke="none">
<path d="M2381 12284 c-31 -22 -71 -110 -71 -155 0 -20 22 -103 50 -185 168
-507 266 -975 322 -1549 20 -203 17 -876 -5 -1095 -32 -315 -84 -641 -148
-916 l-21 -91 -81 18 c-129 28 -593 115 -807 150 l-195 32 -120 -18 c-254 -37
-474 -147 -667 -333 -102 -98 -124 -130 -133 -193 -10 -71 9 -127 63 -179 46
-43 56 -48 312 -129 274 -87 1341 -439 1346 -443 1 -2 -15 -62 -37 -133 -83
-275 -134 -513 -315 -1480 l-15 -80 -642 -215 -642 -215 -29 -42 c-23 -33 -31
-57 -34 -103 -8 -107 -1 -121 111 -233 210 -210 424 -318 689 -347 123 -14
240 -6 398 26 63 13 118 20 122 16 3 -4 27 -135 52 -292 25 -157 53 -327 61
-378 20 -126 77 -356 132 -532 379 -1226 1167 -2084 2398 -2611 85 -36 113
-43 185 -47 77 -3 88 -2 119 20 52 35 73 79 79 162 l4 71 -142 165 c-164 190
-251 304 -339 445 -74 119 -174 314 -230 449 -41 97 -134 376 -128 382 1 2 44
-59 94 -134 331 -496 801 -930 1318 -1214 386 -212 799 -322 1237 -330 l147
-3 30 29 c62 59 79 152 42 231 -10 22 -75 111 -144 199 -595 753 -1002 1600
-1205 2506 -92 406 -138 807 -149 1281 l-6 277 54 11 c30 6 167 31 304 56 410
75 852 160 1335 256 l455 91 445 -150 c489 -165 1262 -430 1266 -435 2 -1 -18
-34 -43 -72 -107 -167 -190 -369 -234 -571 -17 -76 -23 -146 -26 -299 -5 -189
-4 -207 22 -320 178 -805 662 -1256 1458 -1360 192 -25 348 -18 561 26 547
111 939 440 1170 981 123 289 157 661 90 985 -55 269 -215 591 -378 762 -144
151 -366 312 -562 407 -267 130 -559 194 -879 194 l-137 0 -146 56 c-447 172
-904 397 -1305 642 l-138 84 88 55 c390 246 968 530 1393 686 133 49 172 55
640 102 131 13 175 23 285 59 679 226 1062 683 1166 1391 23 158 24 238 4 391
-39 298 -130 552 -276 774 -80 121 -270 313 -394 397 -244 164 -532 279 -760
302 -568 57 -1037 -93 -1390 -444 -160 -159 -329 -401 -397 -568 -32 -80 -72
-221 -93 -332 -79 -413 -1 -828 228 -1202 31 -51 52 -95 48 -98 -11 -6 -579
-201 -1211 -414 l-495 -167 -305 62 c-336 69 -904 174 -1215 225 -110 17 -204
35 -209 40 -4 4 19 122 53 262 201 839 346 1561 385 1917 56 501 59 1007 10
1480 -32 315 -115 792 -150 865 -23 50 -71 83 -136 95 -97 18 -167 -11 -205
-84 -33 -64 -33 -84 -3 -220 51 -227 91 -490 120 -776 18 -174 24 -704 11
-910 -37 -576 -223 -1550 -472 -2476 l-22 -80 -101 23 c-157 35 -526 110 -686
138 -119 21 -149 29 -168 49 l-24 24 36 148 c102 424 154 780 177 1234 12 240
5 569 -13 604 -6 12 -26 38 -46 58 -29 30 -45 38 -87 43 -62 8 -126 -7 -177
-42 l-38 -26 0 -136 c0 -291 -32 -704 -81 -1046 -29 -205 -101 -581 -137 -720
l-19 -70 -39 3 c-85 7 -1079 193 -1090 204 -3 3 11 79 31 168 64 289 121 707
146 1080 15 224 6 809 -15 1020 -54 531 -147 979 -312 1493 -63 198 -87 237
-169 279 -56 29 -171 36 -204 12z m8394 -2099 c193 -30 382 -101 532 -201 247
-163 482 -492 533 -745 99 -495 -5 -903 -308 -1204 -114 -112 -236 -198 -402
-284 -209 -108 -390 -144 -609 -122 l-116 12 -165 -56 c-679 -231 -1374 -575
-2005 -993 -250 -166 -457 -352 -740 -664 l-70 -76 -465 -91 c-734 -143 -1579
-295 -1589 -286 -10 11 20 354 44 506 34 218 48 281 65 291 8 4 283 94 610
199 1428 457 3626 1183 3652 1206 29 25 51 109 46 173 -4 55 -7 61 -67 126
-247 269 -365 520 -396 844 -14 144 30 397 100 581 47 123 65 155 150 267 178
237 425 409 700 486 201 57 293 63 500 31z m-8680 -2215 c1237 -222 2602 -475
3860 -716 303 -58 597 -114 655 -125 58 -11 113 -23 124 -27 12 -5 -211 -81
-721 -246 l-739 -237 -574 186 c-1520 493 -3590 1177 -3590 1186 0 27 206 122
245 113 11 -2 344 -63 740 -134z m1005 -1054 c255 -86 465 -158 466 -159 2 -1
-1 -22 -7 -46 -17 -77 -77 -412 -111 -621 -31 -194 -33 -219 -33 -465 0 -228
2 -264 17 -292 26 -46 62 -70 117 -78 75 -10 128 9 184 66 l47 49 0 77 c0 197
34 509 80 748 30 149 96 404 108 417 11 10 431 -113 757 -223 165 -55 301
-102 303 -103 1 -2 -6 -73 -17 -157 -163 -1260 -23 -2490 407 -3594 192 -492
438 -974 713 -1395 48 -74 86 -136 85 -137 -7 -7 -264 85 -399 143 -604 258
-1097 691 -1453 1274 -173 285 -389 775 -489 1109 -16 53 -26 69 -59 92 -81
59 -178 60 -255 2 -20 -15 -37 -27 -38 -28 -2 -1 -10 -62 -20 -136 -23 -188
-23 -634 0 -813 61 -453 198 -881 402 -1251 28 -49 52 -94 54 -99 6 -15 -155
100 -279 199 -585 467 -986 1049 -1218 1766 -61 187 -88 298 -121 501 -72 435
-95 766 -88 1233 8 496 42 801 143 1287 61 291 208 803 228 795 6 -3 220 -75
476 -161z m5385 -845 c514 -320 1113 -606 1710 -816 l190 -67 175 -3 c203 -3
329 -21 477 -70 269 -89 473 -249 630 -494 53 -82 137 -262 173 -370 30 -89
31 -101 31 -255 0 -586 -219 -979 -671 -1206 -111 -56 -314 -122 -463 -151
-111 -21 -126 -22 -220 -10 -217 27 -424 98 -595 202 -107 67 -288 242 -361
351 -65 98 -140 248 -179 358 -68 193 -76 454 -22 686 51 218 172 429 347 606
73 75 76 80 81 132 7 84 -4 123 -50 172 l-41 44 -696 229 c-383 126 -790 260
-906 297 -115 37 -212 69 -215 71 -5 4 153 154 319 301 l115 102 25 -17 c14
-9 80 -51 146 -92z m-6625 -1136 c0 -80 -3 -145 -7 -145 -5 0 -109 -16 -231
-37 -207 -34 -228 -36 -285 -24 -66 13 -152 49 -204 84 l-31 21 231 82 c128
45 279 100 337 122 59 23 123 41 148 41 l42 1 0 -145z"/>
<path d="M10305 9911 c-211 -73 -373 -183 -497 -339 -111 -140 -179 -280 -205
-421 -24 -125 -23 -381 0 -491 36 -167 111 -309 231 -437 124 -131 313 -247
511 -313 63 -21 88 -24 240 -23 262 0 429 44 601 158 185 123 322 317 411 583
l36 107 -6 140 c-7 159 -26 281 -64 399 -138 439 -502 668 -1058 665 -104 0
-130 -4 -200 -28z m428 -417 c373 -97 565 -507 396 -847 -60 -121 -155 -216
-275 -276 -295 -146 -663 -20 -804 275 -142 299 -24 649 267 799 125 64 287
83 416 49z"/>
<path d="M7195 6649 c-54 -28 -102 -75 -128 -124 -24 -46 -28 -147 -8 -207 14
-42 86 -113 136 -134 54 -22 138 -18 193 10 79 40 98 64 117 150 42 186 -31
283 -240 320 -20 4 -44 -2 -70 -15z"/>
<path d="M10383 4940 c-66 -14 -228 -84 -315 -137 -152 -91 -305 -258 -385
-418 -61 -122 -123 -351 -123 -455 0 -61 38 -243 72 -344 148 -444 466 -668
983 -692 160 -8 198 -1 370 66 305 120 507 327 598 615 36 115 50 220 49 380
0 130 -2 147 -32 235 -138 412 -389 654 -764 736 -82 19 -389 28 -453 14z
m350 -406 c373 -97 565 -507 396 -847 -60 -121 -155 -216 -275 -276 -295 -146
-663 -20 -804 275 -142 299 -24 649 267 799 125 64 287 83 416 49z"/>
</g>
</svg>
