<?xml version="1.0" encoding="UTF-8"?>
<!DOCTYPE svg PUBLIC "-//W3C//DTD SVG 1.1//EN" "http://www.w3.org/Graphics/SVG/1.1/DTD/svg11.dtd">
<svg xmlns="http://www.w3.org/2000/svg" version="1.1" width="512px" height="512px" style="shape-rendering:geometricPrecision; text-rendering:geometricPrecision; image-rendering:optimizeQuality; fill-rule:evenodd; clip-rule:evenodd" xmlns:xlink="http://www.w3.org/1999/xlink">
<g><path style="opacity:0.918" fill="#000000" d="M 196.5,19.5 C 214.503,19.3334 232.503,19.5001 250.5,20C 251,20.5 251.5,21 252,21.5C 252.5,60.8319 252.667,100.165 252.5,139.5C 265.5,139.5 278.5,139.5 291.5,139.5C 291.334,131.826 291.5,124.159 292,116.5C 293.205,115.929 294.372,115.262 295.5,114.5C 292.513,104.884 289.679,95.2177 287,85.5C 266.926,83.0237 259.593,72.0237 265,52.5C 271.242,43.6374 279.742,40.4708 290.5,43C 301.694,47.8856 306.194,56.3856 304,68.5C 302.048,73.5738 299.215,78.0738 295.5,82C 298.578,92.4776 301.578,102.978 304.5,113.5C 306.553,117.412 308.72,117.412 311,113.5C 313.94,102.57 317.106,91.737 320.5,81C 311.162,73.215 308.995,63.715 314,52.5C 319.636,45.0619 327.136,41.8953 336.5,43C 338.5,41 340.5,39 342.5,37C 349.084,35.456 355.751,35.1227 362.5,36C 365.167,38.3333 365.167,40.6667 362.5,43C 358.5,43.3333 354.5,43.6667 350.5,44C 348.139,44.1968 346.472,45.3635 345.5,47.5C 353.575,56.5974 354.409,66.2641 348,76.5C 342.788,82.3533 336.288,84.6866 328.5,83.5C 326.151,93.5615 323.484,103.561 320.5,113.5C 321.278,115.147 322.444,116.48 324,117.5C 324.5,124.826 324.666,132.159 324.5,139.5C 326.833,139.5 329.167,139.5 331.5,139.5C 331.13,133.075 331.63,126.742 333,120.5C 338.779,114.836 345.279,114.003 352.5,118C 354.102,119.935 355.269,122.101 356,124.5C 356.5,137.496 356.667,150.496 356.5,163.5C 357.833,163.5 359.167,163.5 360.5,163.5C 358.125,141.21 356.625,118.876 356,96.5C 361.777,79.5195 373.611,72.6861 391.5,76C 397.185,78.1758 402.518,80.8424 407.5,84C 421.181,85.9068 434.847,87.9068 448.5,90C 456.567,92.9464 460.567,98.7797 460.5,107.5C 471.926,109.76 479.426,116.426 483,127.5C 483.333,166.167 483.667,204.833 484,243.5C 484.576,256.807 486.91,269.807 491,282.5C 491.777,285.429 491.61,288.263 490.5,291C 487.166,292.212 484.666,291.379 483,288.5C 480.351,278.572 478.018,268.572 476,258.5C 475.667,217.167 475.333,175.833 475,134.5C 473.56,124.223 467.727,117.89 457.5,115.5C 453.655,119.423 448.988,121.756 443.5,122.5C 432.504,120.739 421.504,119.072 410.5,117.5C 409.766,132.572 408.433,147.572 406.5,162.5C 410.459,163.327 414.459,163.827 418.5,164C 419,164.5 419.5,165 420,165.5C 420.973,200.547 420.64,235.547 419,270.5C 416.778,274.388 413.612,277.221 409.5,279C 391.836,279.5 374.17,279.667 356.5,279.5C 356.167,332.504 356.5,385.504 357.5,438.5C 362.692,441.525 366.692,445.692 369.5,451C 375.167,451.333 380.833,451.667 386.5,452C 387,452.5 387.5,453 388,453.5C 388.667,460.167 388.667,466.833 388,473.5C 387.5,474 387,474.5 386.5,475C 380.833,475.333 375.167,475.667 369.5,476C 362.157,488.835 351.157,493.835 336.5,491C 325.693,488.193 318.86,481.36 316,470.5C 313.707,456.092 318.707,445.092 331,437.5C 331.667,433.167 331.667,428.833 331,424.5C 326.345,429.913 320.512,433.413 313.5,435C 259.167,435.667 204.833,435.667 150.5,435C 143.861,433.265 138.028,430.098 133,425.5C 132.172,429.871 132.339,434.205 133.5,438.5C 149.092,449.618 152.258,463.618 143,480.5C 135.009,490.164 124.842,493.664 112.5,491C 104.362,488.771 98.3619,483.938 94.5,476.5C 88.5275,475.67 82.5275,475.17 76.5,475C 75.1667,467.333 75.1667,459.667 76.5,452C 82.5275,451.83 88.5275,451.33 94.5,450.5C 97.1385,444.695 101.305,440.362 107,437.5C 107.5,372.834 107.667,308.168 107.5,243.5C 94.8289,243.667 82.1623,243.5 69.5,243C 64.5723,241.073 61.4056,237.573 60,232.5C 59.3333,209.833 59.3333,187.167 60,164.5C 61.5095,163.91 63.0095,163.244 64.5,162.5C 61.6286,155.925 58.6286,149.425 55.5,143C 51.7098,142.77 48.3765,141.437 45.5,139C 44.3597,136.542 42.8597,134.375 41,132.5C 34.7967,134.951 32.1301,132.951 33,126.5C 34.1096,124.963 35.6096,124.297 37.5,124.5C 37.5041,118.31 35.0041,116.643 30,119.5C 23.734,115.345 24.234,111.845 31.5,109C 30.5399,107.581 29.7065,106.081 29,104.5C 26.3012,104.336 23.4679,104.17 20.5,104C 18.0531,99.5144 19.3864,96.1811 24.5,94C 20.8408,86.5674 22.1742,80.2341 28.5,75C 33.8333,72.6667 39.1667,70.3333 44.5,68C 53.4646,65.7323 59.6313,68.8989 63,77.5C 69.0514,73.8926 71.7181,75.5592 71,82.5C 69.3651,83.7256 67.8651,85.059 66.5,86.5C 67.0983,87.7946 67.5983,89.1279 68,90.5C 70.6988,90.6638 73.5321,90.8305 76.5,91C 78.6732,92.8647 79.0066,95.0314 77.5,97.5C 75.8333,98.6667 74.1667,99.8333 72.5,101C 73.5418,102.918 74.7085,104.751 76,106.5C 78.2467,104.845 80.5801,104.512 83,105.5C 83.3333,81.8333 83.6667,58.1667 84,34.5C 85.1667,31.3333 87.3333,29.1667 90.5,28C 103.833,27.3333 117.167,27.3333 130.5,28C 133.167,30.3333 133.167,32.6667 130.5,35C 125.845,35.4992 121.179,35.6658 116.5,35.5C 116.5,38.1667 116.5,40.8333 116.5,43.5C 121.179,43.3342 125.845,43.5008 130.5,44C 133.167,46.3333 133.167,48.6667 130.5,51C 125.845,51.4992 121.179,51.6658 116.5,51.5C 116.5,54.1667 116.5,56.8333 116.5,59.5C 121.179,59.3342 125.845,59.5008 130.5,60C 133.167,62.3333 133.167,64.6667 130.5,67C 125.845,67.4992 121.179,67.6658 116.5,67.5C 116.5,70.1667 116.5,72.8333 116.5,75.5C 121.179,75.3342 125.845,75.5008 130.5,76C 133.167,78.3333 133.167,80.6667 130.5,83C 125.845,83.4992 121.179,83.6658 116.5,83.5C 116.5,86.1667 116.5,88.8333 116.5,91.5C 121.179,91.3342 125.845,91.5008 130.5,92C 133.167,94.3333 133.167,96.6667 130.5,99C 112.59,95.5767 105.423,102.743 109,120.5C 114.779,114.836 121.279,114.003 128.5,118C 130.102,119.935 131.269,122.101 132,124.5C 132.499,129.489 132.666,134.489 132.5,139.5C 137.5,139.5 142.5,139.5 147.5,139.5C 147.333,118.497 147.5,97.4974 148,76.5C 150.381,75.565 152.881,75.2317 155.5,75.5C 155.334,65.1613 155.5,54.828 156,44.5C 163.42,43.3534 170.92,43.1868 178.5,44C 179,44.5 179.5,45 180,45.5C 180.5,55.4944 180.666,65.4944 180.5,75.5C 183.365,75.0548 185.865,75.7215 188,77.5C 188.5,98.164 188.667,118.831 188.5,139.5C 190.833,139.5 193.167,139.5 195.5,139.5C 195.173,99.4275 195.506,59.4275 196.5,19.5 Z M 204.5,27.5 C 217.5,27.5 230.5,27.5 243.5,27.5C 243.5,35.5 243.5,43.5 243.5,51.5C 230.5,51.5 217.5,51.5 204.5,51.5C 204.5,43.5 204.5,35.5 204.5,27.5 Z M 95.5,35.5 C 99.5,35.5 103.5,35.5 107.5,35.5C 107.667,54.1696 107.5,72.8363 107,91.5C 104.3,95.2204 101.967,99.2204 100,103.5C 99.5,123.497 99.3334,143.497 99.5,163.5C 97.1667,163.5 94.8333,163.5 92.5,163.5C 92.3333,121.499 92.5,79.4987 93,37.5C 93.9947,36.9341 94.828,36.2674 95.5,35.5 Z M 164.5,51.5 C 166.833,51.5 169.167,51.5 171.5,51.5C 171.5,59.5 171.5,67.5 171.5,75.5C 169.167,75.5 166.833,75.5 164.5,75.5C 164.5,67.5 164.5,59.5 164.5,51.5 Z M 283.5,51.5 C 294.136,54.1063 297.303,60.4396 293,70.5C 289.257,74.2594 284.757,75.4261 279.5,74C 272.586,70.2303 270.753,64.7303 274,57.5C 276.551,54.3191 279.718,52.3191 283.5,51.5 Z M 327.5,52.5 C 339.615,51.4425 344.449,56.7758 342,68.5C 338.723,74.1088 333.89,75.9422 327.5,74C 321.397,70.9596 319.231,66.1263 321,59.5C 322.694,56.6424 324.861,54.309 327.5,52.5 Z M 204.5,59.5 C 217.5,59.5 230.5,59.5 243.5,59.5C 243.5,86.1667 243.5,112.833 243.5,139.5C 230.5,139.5 217.5,139.5 204.5,139.5C 204.5,112.833 204.5,86.1667 204.5,59.5 Z M 46.5,76.5 C 48.4672,76.2606 50.3005,76.5939 52,77.5C 59.1107,92.7204 65.944,108.054 72.5,123.5C 72.3918,124.442 72.0585,125.275 71.5,126C 65.8333,128.5 60.1667,131 54.5,133.5C 53.1861,132.687 52.0195,131.687 51,130.5C 44.2225,115.946 37.7225,101.279 31.5,86.5C 31.5288,84.9707 32.1955,83.804 33.5,83C 38.1565,81.2935 42.4898,79.1269 46.5,76.5 Z M 156.5,83.5 C 164.167,83.5 171.833,83.5 179.5,83.5C 179.5,102.167 179.5,120.833 179.5,139.5C 171.833,139.5 164.167,139.5 156.5,139.5C 156.5,120.833 156.5,102.167 156.5,83.5 Z M 221.5,84.5 C 225.029,83.8894 226.862,85.2227 227,88.5C 221.648,91.877 219.815,90.5437 221.5,84.5 Z M 377.5,84.5 C 390.617,82.6349 399.117,87.9682 403,100.5C 402.679,116.484 394.512,123.65 378.5,122C 365.291,116.385 361.458,106.885 367,93.5C 369.84,89.6732 373.34,86.6732 377.5,84.5 Z M 410.5,94.5 C 422.357,95.1657 434.357,96.6657 446.5,99C 453.545,104.922 452.712,109.755 444,113.5C 433.129,111.852 422.296,110.019 411.5,108C 412.766,103.321 412.433,98.8207 410.5,94.5 Z M 81.5,113.5 C 82.8271,117.951 83.4937,122.784 83.5,128C 83.3333,132.833 83.1667,137.667 83,142.5C 81.7743,139.048 80.2743,135.715 78.5,132.5C 82.001,126.999 82.3343,121.333 79.5,115.5C 80.2427,114.818 80.9094,114.151 81.5,113.5 Z M 313.5,123.5 C 315.446,128.396 316.113,133.729 315.5,139.5C 310.5,139.5 305.5,139.5 300.5,139.5C 300.351,138.448 300.517,137.448 301,136.5C 305.37,132.298 309.537,127.964 313.5,123.5 Z M 117.5,124.5 C 119.766,124.141 121.599,124.808 123,126.5C 123.5,229.499 123.667,332.499 123.5,435.5C 121.167,435.5 118.833,435.5 116.5,435.5C 116.169,331.763 116.502,228.096 117.5,124.5 Z M 341.5,124.5 C 343.766,124.141 345.599,124.808 347,126.5C 347.5,229.499 347.667,332.499 347.5,435.5C 345.167,435.5 342.833,435.5 340.5,435.5C 340.169,331.763 340.502,228.096 341.5,124.5 Z M 400.5,127.5 C 399.98,139.55 398.98,151.55 397.5,163.5C 388.167,163.5 378.833,163.5 369.5,163.5C 368.393,151.161 367.56,138.828 367,126.5C 372.034,130.177 377.701,131.843 384,131.5C 389.894,131.7 395.394,130.367 400.5,127.5 Z M 69.5,136.5 C 73.9306,145.196 78.2639,154.029 82.5,163C 79.3033,163.987 76.4699,163.487 74,161.5C 70.8333,154.5 67.6667,147.5 64.5,140.5C 66.0147,138.918 67.6814,137.584 69.5,136.5 Z M 132.5,147.5 C 198.833,147.5 265.167,147.5 331.5,147.5C 331.667,163.503 331.5,179.503 331,195.5C 328.288,209.543 319.788,217.377 305.5,219C 256.5,219.667 207.5,219.667 158.5,219C 145.551,217.719 137.051,210.886 133,198.5C 132.5,181.503 132.333,164.503 132.5,147.5 Z M 68.5,171.5 C 81.5,171.5 94.5,171.5 107.5,171.5C 107.5,192.833 107.5,214.167 107.5,235.5C 96.8281,235.667 86.1615,235.5 75.5,235C 73.481,234.55 71.6477,233.717 70,232.5C 68.5236,212.259 68.0236,191.925 68.5,171.5 Z M 356.5,171.5 C 374.833,171.5 393.167,171.5 411.5,171.5C 411.978,203.563 411.478,235.563 410,267.5C 409.097,268.701 407.931,269.535 406.5,270C 389.837,270.5 373.17,270.667 356.5,270.5C 356.5,237.5 356.5,204.5 356.5,171.5 Z M 330.5,216.5 C 331.493,225.318 331.827,234.318 331.5,243.5C 265.167,243.5 198.833,243.5 132.5,243.5C 132.334,234.827 132.5,226.16 133,217.5C 138.028,222.098 143.861,225.265 150.5,227C 204.833,227.667 259.167,227.667 313.5,227C 320.507,225.505 326.174,222.005 330.5,216.5 Z M 132.5,251.5 C 198.833,251.5 265.167,251.5 331.5,251.5C 331.667,267.503 331.5,283.503 331,299.5C 328.288,313.543 319.788,321.377 305.5,323C 256.5,323.667 207.5,323.667 158.5,323C 145.551,321.719 137.051,314.886 133,302.5C 132.5,285.503 132.333,268.503 132.5,251.5 Z M 211.5,267.5 C 224.837,267.333 238.171,267.5 251.5,268C 260.159,270.639 261.492,275.306 255.5,282C 240.888,283.599 226.222,283.932 211.5,283C 204.647,281.085 202.814,276.919 206,270.5C 207.876,269.391 209.709,268.391 211.5,267.5 Z M 330.5,320.5 C 331.493,329.318 331.827,338.318 331.5,347.5C 265.167,347.5 198.833,347.5 132.5,347.5C 132.334,338.827 132.5,330.16 133,321.5C 138.028,326.098 143.861,329.265 150.5,331C 204.833,331.667 259.167,331.667 313.5,331C 320.507,329.505 326.174,326.005 330.5,320.5 Z M 132.5,355.5 C 198.833,355.5 265.167,355.5 331.5,355.5C 331.667,371.503 331.5,387.503 331,403.5C 328.288,417.543 319.788,425.377 305.5,427C 256.5,427.667 207.5,427.667 158.5,427C 145.551,425.719 137.051,418.886 133,406.5C 132.5,389.503 132.333,372.503 132.5,355.5 Z M 211.5,371.5 C 224.837,371.333 238.171,371.5 251.5,372C 260.159,374.639 261.492,379.306 255.5,386C 240.888,387.599 226.222,387.932 211.5,387C 204.647,385.085 202.814,380.919 206,374.5C 207.876,373.391 209.709,372.391 211.5,371.5 Z M 113.5,444.5 C 128.299,442.557 136.966,448.891 139.5,463.5C 135.693,480.237 125.693,485.737 109.5,480C 98.7319,470.652 97.7319,460.318 106.5,449C 108.898,447.476 111.231,445.976 113.5,444.5 Z M 337.5,444.5 C 352.299,442.557 360.966,448.891 363.5,463.5C 359.693,480.237 349.693,485.737 333.5,480C 322.732,470.652 321.732,460.318 330.5,449C 332.898,447.476 335.231,445.976 337.5,444.5 Z M 84.5,459.5 C 86.8333,459.5 89.1667,459.5 91.5,459.5C 91.5,462.167 91.5,464.833 91.5,467.5C 89.1667,467.5 86.8333,467.5 84.5,467.5C 84.5,464.833 84.5,462.167 84.5,459.5 Z M 372.5,459.5 C 374.833,459.5 377.167,459.5 379.5,459.5C 379.5,462.167 379.5,464.833 379.5,467.5C 377.167,467.5 374.833,467.5 372.5,467.5C 372.5,464.833 372.5,462.167 372.5,459.5 Z M 117.5,460.5 C 121.029,459.889 122.862,461.223 123,464.5C 117.648,467.877 115.815,466.544 117.5,460.5 Z M 341.5,460.5 C 345.029,459.889 346.862,461.223 347,464.5C 341.648,467.877 339.815,466.544 341.5,460.5 Z"/></g>
<g><path style="opacity:0.871" fill="#000000" d="M 218.5,75.5 C 228.702,73.5808 234.702,77.5808 236.5,87.5C 234.706,97.5778 228.706,101.411 218.5,99C 211.565,94.4909 209.732,88.3242 213,80.5C 214.73,78.5981 216.563,76.9314 218.5,75.5 Z M 221.5,84.5 C 219.815,90.5437 221.648,91.877 227,88.5C 226.862,85.2227 225.029,83.8894 221.5,84.5 Z"/></g>
<g><path style="opacity:0.822" fill="#000000" d="M 45.5,84.5 C 51.8983,83.2521 54.2316,85.5854 52.5,91.5C 48.5529,94.315 44.2195,95.815 39.5,96C 37.3813,93.7815 37.048,91.2815 38.5,88.5C 41.0591,87.3924 43.3924,86.0591 45.5,84.5 Z"/></g>
<g><path style="opacity:0.81" fill="#000000" d="M 53.5,98.5 C 59.5943,98.4105 61.4276,101.077 59,106.5C 54.8847,109.317 50.3847,110.483 45.5,110C 43.9644,108.401 43.4644,106.567 44,104.5C 46.848,101.848 50.0147,99.8479 53.5,98.5 Z"/></g>
<g><path style="opacity:0.81" fill="#000000" d="M 59.5,113.5 C 65.6739,112.173 67.8406,114.506 66,120.5C 61.9538,123.619 57.4538,125.119 52.5,125C 50.6041,123.192 50.1041,121.025 51,118.5C 53.6822,116.415 56.5155,114.748 59.5,113.5 Z"/></g>
<g><path style="opacity:0.936" fill="#000000" d="M 205.5,259.5 C 222.837,259.333 240.17,259.5 257.5,260C 267.217,264.68 270.384,272.18 267,282.5C 264.778,286.388 261.612,289.221 257.5,291C 240.167,291.667 222.833,291.667 205.5,291C 195.968,285.748 193.135,277.915 197,267.5C 199.157,264.024 201.99,261.357 205.5,259.5 Z M 211.5,267.5 C 209.709,268.391 207.876,269.391 206,270.5C 202.814,276.919 204.647,281.085 211.5,283C 226.222,283.932 240.888,283.599 255.5,282C 261.492,275.306 260.159,270.639 251.5,268C 238.171,267.5 224.837,267.333 211.5,267.5 Z"/></g>
<g><path style="opacity:0.936" fill="#000000" d="M 205.5,363.5 C 222.837,363.333 240.17,363.5 257.5,364C 267.217,368.68 270.384,376.18 267,386.5C 264.778,390.388 261.612,393.221 257.5,395C 240.167,395.667 222.833,395.667 205.5,395C 195.968,389.748 193.135,381.915 197,371.5C 199.157,368.024 201.99,365.357 205.5,363.5 Z M 211.5,371.5 C 209.709,372.391 207.876,373.391 206,374.5C 202.814,380.919 204.647,385.085 211.5,387C 226.222,387.932 240.888,387.599 255.5,386C 261.492,379.306 260.159,374.639 251.5,372C 238.171,371.5 224.837,371.333 211.5,371.5 Z"/></g>
<g><path style="opacity:0.871" fill="#000000" d="M 114.5,451.5 C 124.702,449.581 130.702,453.581 132.5,463.5C 130.706,473.578 124.706,477.411 114.5,475C 107.565,470.491 105.732,464.324 109,456.5C 110.73,454.598 112.563,452.931 114.5,451.5 Z M 117.5,460.5 C 115.815,466.544 117.648,467.877 123,464.5C 122.862,461.223 121.029,459.889 117.5,460.5 Z"/></g>
<g><path style="opacity:0.871" fill="#000000" d="M 338.5,451.5 C 348.702,449.581 354.702,453.581 356.5,463.5C 354.706,473.578 348.706,477.411 338.5,475C 331.565,470.491 329.732,464.324 333,456.5C 334.73,454.598 336.563,452.931 338.5,451.5 Z M 341.5,460.5 C 339.815,466.544 341.648,467.877 347,464.5C 346.862,461.223 345.029,459.889 341.5,460.5 Z"/></g>
</svg>
