<?xml version="1.0" encoding="UTF-8"?>
<!DOCTYPE svg PUBLIC "-//W3C//DTD SVG 1.1//EN" "http://www.w3.org/Graphics/SVG/1.1/DTD/svg11.dtd">
<svg xmlns="http://www.w3.org/2000/svg" version="1.1" width="512px" height="512px" style="shape-rendering:geometricPrecision; text-rendering:geometricPrecision; image-rendering:optimizeQuality; fill-rule:evenodd; clip-rule:evenodd" xmlns:xlink="http://www.w3.org/1999/xlink">
<g><path style="opacity:0.933" fill="#000000" d="M 511.5,482.5 C 511.5,485.167 511.5,487.833 511.5,490.5C 509.862,493.623 507.195,495.29 503.5,495.5C 448.545,479.678 393.545,464.011 338.5,448.5C 283.311,464.089 228.144,479.756 173,495.5C 115.664,479.542 58.4977,463.042 1.5,446C 0.934056,445.005 0.267389,444.172 -0.5,443.5C -0.5,440.833 -0.5,438.167 -0.5,435.5C 39.0105,360.982 78.6772,286.482 118.5,212C 120.351,211.163 122.184,210.329 124,209.5C 153.372,217.343 182.706,225.343 212,233.5C 225.209,229.875 238.376,226.042 251.5,222C 227.595,187.297 212.928,148.964 207.5,107C 210.541,62.9613 232.874,33.6279 274.5,19C 312.763,10.0887 344.93,20.2553 371,49.5C 389.662,74.1472 394.996,101.48 387,131.5C 379.937,164.446 366.771,194.613 347.5,222C 361.354,226.299 375.354,230.299 389.5,234C 391.286,234.785 392.786,235.951 394,237.5C 432.669,319.501 471.836,401.168 511.5,482.5 Z M 291.5,32.5 C 326.765,31.2059 352.265,46.2059 368,77.5C 376.287,97.667 376.621,118 369,138.5C 358.357,169.119 344.024,197.785 326,224.5C 317.657,237.186 308.824,249.519 299.5,261.5C 277.365,232.828 258.199,202.161 242,169.5C 232.206,149.95 226.372,129.284 224.5,107.5C 228.257,65.7498 250.591,40.7498 291.5,32.5 Z M 294.5,78.5 C 311.036,77.6831 322.202,85.0164 328,100.5C 329.823,121.683 320.156,133.683 299,136.5C 281.829,133.996 271.996,124.163 269.5,107C 271.75,91.9119 280.083,82.4119 294.5,78.5 Z M 128.5,228.5 C 153.381,234.719 178.048,241.552 202.5,249C 189.91,324.373 177.91,399.873 166.5,475.5C 117.379,462.183 68.3791,448.35 19.5,434C 55.9733,365.552 92.3067,297.052 128.5,228.5 Z M 258.5,237.5 C 259.822,237.33 260.989,237.663 262,238.5C 264.919,243.34 268.086,248.006 271.5,252.5C 264.743,255.378 258.076,258.544 251.5,262C 234.98,273.906 233.647,287.239 247.5,302C 265.741,314.954 286.075,320.12 308.5,317.5C 314.788,355.726 321.454,393.893 328.5,432C 328.167,432.5 327.833,433 327.5,433.5C 279.604,447.577 231.604,461.244 183.5,474.5C 195.007,399.793 206.84,325.126 219,250.5C 219.5,249.333 220.333,248.5 221.5,248C 234.085,244.941 246.418,241.441 258.5,237.5 Z M 337.5,237.5 C 352.096,241.199 366.596,245.199 381,249.5C 416.404,323.876 451.904,398.21 487.5,472.5C 487.167,472.833 486.833,473.167 486.5,473.5C 439.614,459.696 392.614,446.362 345.5,433.5C 338.816,394.247 331.816,355.081 324.5,316C 333.32,313.502 341.653,309.835 349.5,305C 364.357,291.947 365.023,278.281 351.5,264C 344.151,258.826 336.151,254.992 327.5,252.5C 330.859,247.482 334.193,242.482 337.5,237.5 Z M 278.5,268.5 C 280.199,268.34 281.866,268.506 283.5,269C 286.45,273.618 289.784,277.952 293.5,282C 296.668,284.633 300.002,284.967 303.5,283C 308.083,279.088 311.917,274.588 315,269.5C 325.514,269.229 334.848,272.562 343,279.5C 345,282.167 345,284.833 343,287.5C 337.601,292.951 331.101,296.451 323.5,298C 307.829,301.306 292.162,301.306 276.5,298C 269.759,296.379 263.593,293.546 258,289.5C 254.309,284.28 255.143,279.78 260.5,276C 266.328,272.788 272.328,270.288 278.5,268.5 Z"/></g>
<g><path style="opacity:0.931" fill="#000000" d="M 294.5,61.5 C 316.262,60.9581 332.095,70.2914 342,89.5C 350.909,118.5 341.742,139.333 314.5,152C 287.468,158.557 267.968,149.39 256,124.5C 248.987,100.867 255.487,82.0341 275.5,68C 281.59,64.738 287.924,62.5713 294.5,61.5 Z M 294.5,78.5 C 280.083,82.4119 271.75,91.9119 269.5,107C 271.996,124.163 281.829,133.996 299,136.5C 320.156,133.683 329.823,121.683 328,100.5C 322.202,85.0164 311.036,77.6831 294.5,78.5 Z"/></g>
</svg>
