<?xml version="1.0" encoding="UTF-8"?>
<!DOCTYPE svg PUBLIC "-//W3C//DTD SVG 1.1//EN" "http://www.w3.org/Graphics/SVG/1.1/DTD/svg11.dtd">
<svg xmlns="http://www.w3.org/2000/svg" version="1.1" width="512px" height="512px" style="shape-rendering:geometricPrecision; text-rendering:geometricPrecision; image-rendering:optimizeQuality; fill-rule:evenodd; clip-rule:evenodd" xmlns:xlink="http://www.w3.org/1999/xlink">
<g><path style="opacity:0.919" fill="#000000" d="M 148.5,9.5 C 186.216,6.7975 222.883,11.6308 258.5,24C 270.997,28.8489 281.497,36.3489 290,46.5C 292.514,50.5252 294.181,54.8585 295,59.5C 295.5,119.166 295.667,178.832 295.5,238.5C 333.86,233.148 371.86,234.981 409.5,244C 422.609,247.59 434.942,252.923 446.5,260C 454.975,265.471 460.808,272.971 464,282.5C 464.667,333.833 464.667,385.167 464,436.5C 461.067,445.86 455.567,453.36 447.5,459C 423.157,473.223 396.824,481.223 368.5,483C 336.645,485.921 305.145,483.754 274,476.5C 261.884,484.25 249.051,490.75 235.5,496C 184.582,509.898 141.082,497.732 105,459.5C 86.465,436.906 76.7984,410.906 76,381.5C 62.3077,375.808 52.6411,366.141 47,352.5C 46.3333,253.833 46.3333,155.167 47,56.5C 49.4417,48.0453 54.275,41.212 61.5,36C 76.9791,25.5017 93.9791,18.5017 112.5,15C 124.572,12.6617 136.572,10.8284 148.5,9.5 Z M 148.5,22.5 C 186.068,19.4145 222.401,24.5812 257.5,38C 266.479,41.9848 273.979,47.8182 280,55.5C 283.279,62.3825 282.279,68.7159 277,74.5C 266.376,83.731 254.209,90.231 240.5,94C 192.742,106.935 145.076,106.601 97.5,93C 84.3627,88.8509 72.8627,82.0176 63,72.5C 58.8601,66.7133 58.5268,60.7133 62,54.5C 71.3913,44.2072 82.8913,37.0405 96.5,33C 113.62,27.743 130.953,24.243 148.5,22.5 Z M 281.5,87.5 C 282.656,95.3225 282.823,103.323 282,111.5C 280.142,118.698 275.975,124.198 269.5,128C 248.435,140.02 225.769,147.02 201.5,149C 175.541,151.558 149.708,150.725 124,146.5C 117.129,149.156 115.962,153.323 120.5,159C 166.283,167.366 211.283,164.366 255.5,150C 265.369,146.487 274.202,141.32 282,134.5C 282.667,142.5 282.667,150.5 282,158.5C 280.479,164.366 277.312,169.2 272.5,173C 258.599,182.612 243.265,188.945 226.5,192C 187.759,199.604 149.093,199.271 110.5,191C 93.5505,187.44 78.3839,180.274 65,169.5C 62.9376,167.099 61.2709,164.433 60,161.5C 59.3333,152.833 59.3333,144.167 60,135.5C 64.2516,139.259 69.0849,141.925 74.5,143.5C 80.0968,142.474 81.9302,139.141 80,133.5C 72.4238,129.259 66.0905,123.592 61,116.5C 59.4165,107.242 59.0832,97.9091 60,88.5C 81.9663,102.935 106.133,111.435 132.5,114C 168.55,118.676 204.216,116.676 239.5,108C 248.127,105.791 256.46,102.791 264.5,99C 270.891,96.0862 276.558,92.2528 281.5,87.5 Z M 59.5,182.5 C 71.8033,191.65 85.47,198.15 100.5,202C 147.169,213.333 193.836,213.333 240.5,202C 255.493,198.169 269.16,191.669 281.5,182.5C 282.665,190.145 282.831,197.812 282,205.5C 280.528,211.984 277.028,217.151 271.5,221C 247.819,235.008 222.152,242.674 194.5,244C 156.322,247.758 119.322,242.758 83.5,229C 76.3901,225.363 69.8901,220.863 64,215.5C 62.4138,213.33 61.0804,210.996 60,208.5C 59.5002,199.84 59.3336,191.173 59.5,182.5 Z M 59.5,229.5 C 78.3525,242.846 99.3525,251.013 122.5,254C 158.286,259.195 193.953,258.528 229.5,252C 248.79,248.432 266.29,240.932 282,229.5C 282.499,233.486 282.666,237.486 282.5,241.5C 263.148,244.946 245.481,252.279 229.5,263.5C 188.599,253.312 151.766,261.312 119,287.5C 100.78,283.985 83.9462,277.151 68.5,267C 64.5094,264.011 61.676,260.178 60,255.5C 59.5002,246.84 59.3336,238.173 59.5,229.5 Z M 323.5,248.5 C 354.114,246.939 384.114,250.439 413.5,259C 423.087,262.191 432.087,266.525 440.5,272C 444.036,275.201 447.203,278.701 450,282.5C 452.665,290.51 450.832,297.343 444.5,303C 431.374,312.894 416.708,319.56 400.5,323C 370.115,329.544 339.448,331.211 308.5,328C 297.372,307.871 282.372,291.204 263.5,278C 257.833,274.833 252.167,271.667 246.5,268.5C 260.249,260.861 274.916,255.694 290.5,253C 301.614,251.237 312.614,249.737 323.5,248.5 Z M 182.5,272.5 C 185.5,272.5 188.5,272.5 191.5,272.5C 191.249,275.909 191.583,279.242 192.5,282.5C 201.952,286.408 205.952,283.075 204.5,272.5C 229.168,274.174 250.835,283.007 269.5,299C 264.769,301.956 262.936,306.122 264,311.5C 266.559,314.349 269.726,315.183 273.5,314C 275.333,312.167 277.167,310.333 279,308.5C 294.996,327.169 303.829,348.836 305.5,373.5C 302.059,373.301 298.726,373.801 295.5,375C 292.878,378.535 292.878,382.035 295.5,385.5C 298.758,386.417 302.091,386.751 305.5,386.5C 304.453,411.58 295.453,433.247 278.5,451.5C 276.684,450.185 275.017,448.685 273.5,447C 265.841,444.997 262.674,447.83 264,455.5C 265.308,457.641 266.808,459.641 268.5,461.5C 250.411,477.873 229.077,486.873 204.5,488.5C 206.039,481.903 203.706,477.569 197.5,475.5C 194.885,475.856 193.052,477.189 192,479.5C 191.502,482.482 191.335,485.482 191.5,488.5C 166.626,486.887 144.96,477.887 126.5,461.5C 129.315,459.023 131.315,456.023 132.5,452.5C 130.965,446.81 127.299,444.977 121.5,447C 119.983,448.685 118.316,450.185 116.5,451.5C 100.122,433.056 91.122,411.389 89.5,386.5C 92.8499,386.665 96.1832,386.498 99.5,386C 103.5,382.333 103.5,378.667 99.5,375C 96.2744,373.801 92.941,373.301 89.5,373.5C 91.4108,349.03 100.411,327.697 116.5,309.5C 120.277,314.405 124.943,315.571 130.5,313C 131.26,311.559 131.926,310.059 132.5,308.5C 131.315,304.977 129.315,301.977 126.5,299.5C 142.566,285.134 161.233,276.134 182.5,272.5 Z M 59.5,276.5 C 73.9328,287.047 89.9328,294.38 107.5,298.5C 100.387,306.554 94.3868,315.388 89.5,325C 79.1909,322.054 70.3576,316.554 63,308.5C 62,306.5 61,304.5 60,302.5C 59.5002,293.84 59.3336,285.173 59.5,276.5 Z M 450.5,314.5 C 451.657,322.99 451.824,331.657 451,340.5C 449.114,344.44 446.614,347.94 443.5,351C 422.342,364.943 399.009,372.943 373.5,375C 355.37,377.163 337.37,377.33 319.5,375.5C 318.364,364.016 316.364,352.682 313.5,341.5C 351.744,345.281 389.077,341.115 425.5,329C 434.847,325.668 443.181,320.835 450.5,314.5 Z M 59.5,324.5 C 66.7475,329.711 74.5808,334.044 83,337.5C 80.6977,347.051 78.531,356.718 76.5,366.5C 60.0648,357.169 54.3982,343.169 59.5,324.5 Z M 188.5,339.5 C 194.842,339.334 201.175,339.5 207.5,340C 220.601,345.035 224.101,353.869 218,366.5C 214.333,371.25 209.499,373.75 203.5,374C 198.511,374.499 193.511,374.666 188.5,374.5C 188.5,362.833 188.5,351.167 188.5,339.5 Z M 450.5,361.5 C 451.657,369.99 451.824,378.657 451,387.5C 449.021,391.956 446.187,395.79 442.5,399C 421.814,412.181 399.147,419.847 374.5,422C 353.461,425.127 332.461,425.127 311.5,422C 315.811,411.613 318.144,400.78 318.5,389.5C 356.229,392.362 392.896,387.529 428.5,375C 436.733,371.729 444.067,367.229 450.5,361.5 Z M 450.5,408.5 C 451.657,416.99 451.824,425.657 451,434.5C 447.553,441.614 442.386,447.114 435.5,451C 409.699,463.762 382.366,470.429 353.5,471C 330.179,472.309 307.179,470.309 284.5,465C 292.851,456.484 299.851,446.984 305.5,436.5C 307,436.167 308.5,435.833 310,435.5C 349.765,439.874 388.598,435.707 426.5,423C 435.362,419.411 443.362,414.577 450.5,408.5 Z"/></g>
<g><path style="opacity:0.907" fill="#000000" d="M 149.5,34.5 C 157.84,34.3336 166.173,34.5003 174.5,35C 178.802,39.7968 178.136,43.7968 172.5,47C 151.196,46.9969 130.196,49.4969 109.5,54.5C 103.253,53.6766 101.42,50.3433 104,44.5C 104.903,43.2986 106.069,42.4652 107.5,42C 121.47,38.5066 135.47,36.0066 149.5,34.5 Z"/></g>
<g><path style="opacity:0.863" fill="#000000" d="M 84.5,50.5 C 92.7328,49.5528 95.5662,52.8861 93,60.5C 88.5639,63.3026 84.3972,66.4693 80.5,70C 72.5162,70.5495 70.0162,67.0495 73,59.5C 76.733,56.2546 80.5663,53.2546 84.5,50.5 Z"/></g>
<g><path style="opacity:0.907" fill="#000000" d="M 192.5,291.5 C 236.096,291.866 265.929,312.199 282,352.5C 288.385,373.062 287.718,393.396 280,413.5C 278.733,417.869 276.567,421.703 273.5,425C 267.911,426.545 264.578,424.545 263.5,419C 279.397,385.951 275.563,355.451 252,327.5C 219.248,299.128 185.082,297.295 149.5,322C 120.081,350.346 114.581,382.846 133,419.5C 151.285,446.555 176.785,458.389 209.5,455C 217.158,453.67 224.491,451.336 231.5,448C 240.31,447.483 242.644,451.15 238.5,459C 198.156,476.805 162.323,470.305 131,439.5C 110.198,414.046 104.198,385.38 113,353.5C 126.829,316.497 153.329,295.83 192.5,291.5 Z M 188.5,339.5 C 188.5,351.167 188.5,362.833 188.5,374.5C 193.511,374.666 198.511,374.499 203.5,374C 209.499,373.75 214.333,371.25 218,366.5C 224.101,353.869 220.601,345.035 207.5,340C 201.175,339.5 194.842,339.334 188.5,339.5 Z"/></g>
<g><path style="opacity:0.926" fill="#000000" d="M 179.5,326.5 C 189.172,326.334 198.839,326.5 208.5,327C 223.398,329.6 231.898,338.433 234,353.5C 235.034,370.271 227.534,381.105 211.5,386C 203.841,386.5 196.174,386.666 188.5,386.5C 188.5,389.167 188.5,391.833 188.5,394.5C 198.839,394.334 209.172,394.5 219.5,395C 223.776,395.108 225.776,397.275 225.5,401.5C 225.674,403.693 225.007,405.527 223.5,407C 211.838,407.5 200.171,407.667 188.5,407.5C 188.666,413.176 188.499,418.843 188,424.5C 187.288,427.95 185.122,429.616 181.5,429.5C 179.088,429.594 177.255,428.594 176,426.5C 175.5,420.175 175.334,413.842 175.5,407.5C 170.821,407.666 166.155,407.499 161.5,407C 157.5,403.333 157.5,399.667 161.5,396C 166.066,394.691 170.733,394.191 175.5,394.5C 175.5,391.833 175.5,389.167 175.5,386.5C 170.821,386.666 166.155,386.499 161.5,386C 157.5,382.333 157.5,378.667 161.5,375C 166.155,374.501 170.821,374.334 175.5,374.5C 175.333,359.496 175.5,344.496 176,329.5C 177.145,328.364 178.312,327.364 179.5,326.5 Z M 188.5,339.5 C 188.5,351.167 188.5,362.833 188.5,374.5C 193.511,374.666 198.511,374.499 203.5,374C 209.499,373.75 214.333,371.25 218,366.5C 224.101,353.869 220.601,345.035 207.5,340C 201.175,339.5 194.842,339.334 188.5,339.5 Z"/></g>
</svg>
